<svg width="1440" height="810" viewBox="0 0 1440 810" fill="none" xmlns="http://www.w3.org/2000/svg">
  <g clip-path="url(#clip0)">
    <rect width="1440" height="810" fill="#20303F"/>
    <ellipse cx="205" cy="818" rx="527.5" ry="73" fill="url(#paint0_linear)" fill-opacity="0.5"/>
    <path d="M733.752 819.803C733.752 779.322 497.302 746.505 205.626 746.505C-86.0498 746.505 -322.5 779.322 -322.5 819.803C-322.5 842.421 -569.5 -795.5 -569.5 -795.5L733.752 819.803Z" fill="url(#paint1_linear)"/>
    <g opacity="0.5">
      <ellipse opacity="0.75" cx="1154.45" cy="201.792" rx="100.2" ry="13.8987" fill="url(#paint2_linear)" fill-opacity="0.5"/>
      <path opacity="0.75" d="M1254.65 202.052C1254.65 194.367 1209.79 188.137 1154.45 188.137C1099.11 188.137 1054.25 194.367 1054.25 202.052C1054.25 206.346 1154.45 -11.8601 1154.45 -11.8601L1254.65 202.052Z" fill="url(#paint3_linear)"/>
      <ellipse opacity="0.75" cx="940.472" cy="328.496" rx="100.2" ry="13.8987" fill="url(#paint4_linear)" fill-opacity="0.5"/>
      <path opacity="0.75" d="M1040.67 328.756C1040.67 321.071 995.811 314.841 940.472 314.841C885.133 314.841 840.272 321.071 840.272 328.756C840.272 333.05 1154.45 -11.8602 1154.45 -11.8602L1040.67 328.756Z" fill="url(#paint5_linear)"/>
      <g opacity="0.75">
        <path d="M1128.59 120.985H1166.08L1186.77 141.672V201.792H1128.59V120.985Z" fill="#20303F"/>
        <path d="M1166.08 120.985L1186.77 141.672H1166.08V120.985Z" fill="#546D84"/>
        <line x1="1147.59" y1="168.609" x2="940.722" y2="288.202" stroke="url(#paint6_linear)"/>
        <path d="M911.381 243.488H948.875L969.562 264.174V324.294H911.381V243.488Z" fill="#20303F"/>
        <path opacity="0.25" d="M817 354.354L910.735 324.294H968.593L972.471 377.626L817 354.354Z" fill="url(#paint7_linear)"/>
        <path d="M948.875 243.488L969.562 264.174H948.875V243.488Z" fill="#546D84"/>
      </g>
      <path opacity="0.25" d="M1034.21 231.528L1127.94 201.468H1185.8L1189.68 254.8L1034.21 231.528Z" fill="url(#paint8_linear)"/>
      <ellipse cx="1137.96" cy="527.926" rx="168.4" ry="23.2722" fill="url(#paint9_linear)" fill-opacity="0.5"/>
      <path d="M1306.61 528.524C1306.61 515.61 1231.16 505.141 1138.08 505.141C1045.01 505.141 969.562 515.61 969.562 528.524C969.562 535.74 1419.17 -82.0001 1419.17 -82.0001L1306.61 528.524Z" fill="url(#paint10_linear)"/>
      <path d="M1147.77 459.322L937.563 288.416" stroke="url(#paint11_linear)" stroke-width="3"/>
      <path d="M1147.77 459.322L1419.49 435.16" stroke="url(#paint12_linear)" stroke-width="3"/>
      <path d="M1091.04 360.559H1166.26L1207.76 402.061V522.675H1091.04V360.559Z" fill="#20303F"/>
      <path opacity="0.25" d="M901.685 582.983L1089.74 522.676H1205.82L1213.6 629.672L901.685 582.983Z" fill="url(#paint13_linear)"/>
      <path d="M1166.26 360.559L1207.76 402.061H1166.26V360.559Z" fill="#546D84"/>
    </g>
    <path d="M1142 461.5L327.937 843.318" stroke="url(#paint14_linear)" stroke-width="5"/>
  </g>
  <defs>
    <linearGradient id="paint0_linear" x1="324.472" y1="717.625" x2="322.442" y2="907.222" gradientUnits="userSpaceOnUse">
      <stop stop-color="#B2FF00"/>
      <stop offset="1" stop-color="#95D600" stop-opacity="0"/>
    </linearGradient>
    <linearGradient id="paint1_linear" x1="205.627" y1="820.133" x2="205.627" y2="-306.945" gradientUnits="userSpaceOnUse">
      <stop stop-color="#95D600" stop-opacity="0.1"/>
      <stop offset="1" stop-color="#95D600" stop-opacity="0.56"/>
    </linearGradient>
    <linearGradient id="paint2_linear" x1="1177.14" y1="182.681" x2="1176.75" y2="218.779" gradientUnits="userSpaceOnUse">
      <stop stop-color="#B2FF00"/>
      <stop offset="1" stop-color="#95D600" stop-opacity="0"/>
    </linearGradient>
    <linearGradient id="paint3_linear" x1="1154.45" y1="202.115" x2="1154.45" y2="-11.8601" gradientUnits="userSpaceOnUse">
      <stop stop-color="#95D600" stop-opacity="0.1"/>
      <stop offset="1" stop-color="#95D600" stop-opacity="0.56"/>
    </linearGradient>
    <linearGradient id="paint4_linear" x1="963.166" y1="309.385" x2="962.778" y2="345.483" gradientUnits="userSpaceOnUse">
      <stop stop-color="#B2FF00"/>
      <stop offset="1" stop-color="#95D600" stop-opacity="0"/>
    </linearGradient>
    <linearGradient id="paint5_linear" x1="940.472" y1="328.819" x2="940.472" y2="114.844" gradientUnits="userSpaceOnUse">
      <stop stop-color="#95D600" stop-opacity="0.1"/>
      <stop offset="1" stop-color="#95D600" stop-opacity="0.56"/>
    </linearGradient>
    <linearGradient id="paint6_linear" x1="940.682" y1="288.132" x2="1147.52" y2="168.495" gradientUnits="userSpaceOnUse">
      <stop stop-color="#95D600" stop-opacity="0"/>
      <stop offset="0.453125" stop-color="#95D600"/>
      <stop offset="1" stop-color="#95D600" stop-opacity="0"/>
    </linearGradient>
    <linearGradient id="paint7_linear" x1="936.593" y1="324.294" x2="935.3" y2="354.031" gradientUnits="userSpaceOnUse">
      <stop/>
      <stop offset="1" stop-opacity="0"/>
    </linearGradient>
    <linearGradient id="paint8_linear" x1="1153.8" y1="201.468" x2="1152.51" y2="231.205" gradientUnits="userSpaceOnUse">
      <stop/>
      <stop offset="1" stop-opacity="0"/>
    </linearGradient>
    <linearGradient id="paint9_linear" x1="1176.1" y1="495.926" x2="1175.46" y2="556.369" gradientUnits="userSpaceOnUse">
      <stop stop-color="#B2FF00"/>
      <stop offset="1" stop-color="#95D600" stop-opacity="0"/>
    </linearGradient>
    <linearGradient id="paint10_linear" x1="1138.09" y1="528.629" x2="1138.09" y2="169.079" gradientUnits="userSpaceOnUse">
      <stop stop-color="#95D600" stop-opacity="0.1"/>
      <stop offset="1" stop-color="#95D600" stop-opacity="0.56"/>
    </linearGradient>
    <linearGradient id="paint11_linear" x1="934.894" y1="291.469" x2="1138.74" y2="469.657" gradientUnits="userSpaceOnUse">
      <stop stop-color="#95D600" stop-opacity="0"/>
      <stop offset="0.453125" stop-color="#95D600"/>
      <stop offset="1" stop-color="#95D600" stop-opacity="0"/>
    </linearGradient>
    <linearGradient id="paint12_linear" x1="1473.83" y1="372.997" x2="1331.79" y2="248.821" gradientUnits="userSpaceOnUse">
      <stop stop-color="#95D600" stop-opacity="0"/>
      <stop offset="0.453125" stop-color="#95D600"/>
      <stop offset="1" stop-color="#95D600" stop-opacity="0"/>
    </linearGradient>
    <linearGradient id="paint13_linear" x1="1141.62" y1="522.676" x2="1139.02" y2="582.334" gradientUnits="userSpaceOnUse">
      <stop/>
      <stop offset="1" stop-opacity="0"/>
    </linearGradient>
    <linearGradient id="paint14_linear" x1="327.161" y1="841.398" x2="1140.9" y2="511.763" gradientUnits="userSpaceOnUse">
      <stop stop-color="#95D600" stop-opacity="0"/>
      <stop offset="0.453125" stop-color="#95D600"/>
      <stop offset="1" stop-color="#95D600" stop-opacity="0"/>
    </linearGradient>
    <clipPath id="clip0">
      <rect width="1440" height="810" fill="white"/>
    </clipPath>
  </defs>
</svg>
