<?xml version="1.0" encoding="utf-8"?>
<!-- Generator: Adobe Illustrator 16.0.0, SVG Export Plug-In . SVG Version: 6.00 Build 0)  -->
<!DOCTYPE svg PUBLIC "-//W3C//DTD SVG 1.1//EN" "http://www.w3.org/Graphics/SVG/1.1/DTD/svg11.dtd">
<svg version="1.1" id="Слой_1" xmlns="http://www.w3.org/2000/svg" xmlns:xlink="http://www.w3.org/1999/xlink" x="0px" y="0px"
	 width="283.465px" height="283.464px" viewBox="0 0 283.465 283.464" enable-background="new 0 0 283.465 283.464"
	 xml:space="preserve">
<g>
	<g>
		<g>
			<path fill="#1B3845" d="M162.609,173.69h11.06v5.289h-11.06v4.336h12.678v5.402h-18.894v-24.988h18.894v5.402h-12.678V173.69z"/>
			<path fill="#1B3845" d="M203.979,176.227c0,7.273-5.693,13.008-13.265,13.008c-7.533,0-13.23-5.734-13.23-13.008
				c0-7.279,5.697-13.012,13.23-13.012C198.286,163.215,203.979,168.948,203.979,176.227z M197.661,176.227
				c0-3.936-2.904-7.242-6.946-7.242c-4.041,0-6.943,3.307-6.943,7.242c0,3.93,2.902,7.238,6.943,7.238
				C194.757,183.465,197.661,180.157,197.661,176.227z"/>
			<path fill="#163744" d="M152.026,188.717h-4.813l-11.979-13.709v13.709h-6.21v-24.988h4.741l12.052,14.076v-14.076h6.21V188.717z
				"/>
		</g>
	</g>
	<g>
		<path fill="#163744" d="M102.541,124.476l-25.337,25.336v-37.326L102.541,124.476z M130.043,92.393l-51.064,18.65l25.092,11.903
			l29.085-29.086L130.043,92.393z"/>
		<path fill="#95D600" d="M112.394,174.67L96.64,190.424l-19.436-9.443v-22.15l31.456-31.458l3.733,1.765V174.67z M113.614,127.473
			l51.289-18.65l-25.62-12.073l-29.097,29.099L113.614,127.473z M165.46,110.599l-36.192,12.989v34.209l36.192-36.193V110.599z"/>
	</g>
	<g>
		<path fill="#163744" d="M165.571,149.241h-1.198c-0.273-1.421-1.303-2.346-3.253-2.346c-1.764,0-2.927,0.857-2.927,2.209
			c0,1.061,0.838,1.713,2.379,1.986l1.764,0.342c2.071,0.395,3.235,1.371,3.235,3.031c0,2.123-1.729,3.527-4.332,3.527
			c-2.791,0-4.571-1.455-4.846-3.973h1.199c0.291,1.816,1.558,2.877,3.698,2.877c1.866,0,3.048-0.908,3.048-2.295
			c0-0.975-0.685-1.713-2.192-1.986l-2.02-0.393c-2.141-0.395-3.221-1.473-3.221-3.049c0-2.003,1.663-3.339,4.128-3.339
			C163.396,145.833,165.281,146.946,165.571,149.241z"/>
		<path fill="#163744" d="M172.301,146.09c2.671,0,4.453,1.541,4.453,3.853c0,2.38-1.833,3.956-4.607,3.956h-2.688v3.834h-1.216
			V146.09H172.301z M172.249,152.786c1.986,0,3.305-1.146,3.305-2.843c0-1.644-1.318-2.739-3.305-2.739h-2.79v5.582H172.249z"/>
		<path fill="#163744" d="M188.877,153.641h1.268c-0.565,2.568-2.689,4.332-5.549,4.332c-3.355,0-6.044-2.637-6.044-6.061
			c0-3.426,2.688-6.063,6.044-6.063c2.859,0,4.983,1.765,5.549,4.332h-1.268c-0.497-1.917-2.089-3.167-4.281-3.167
			c-2.705,0-4.811,2.106-4.811,4.897s2.105,4.896,4.811,4.896C186.788,156.809,188.38,155.559,188.877,153.641z"/>
		<path fill="#163744" d="M202.711,153.641h1.269c-0.565,2.568-2.688,4.332-5.548,4.332c-3.356,0-6.045-2.637-6.045-6.061
			c0-3.426,2.688-6.063,6.045-6.063c2.86,0,4.982,1.765,5.548,4.332h-1.269c-0.494-1.917-2.089-3.167-4.279-3.167
			c-2.706,0-4.813,2.106-4.813,4.897s2.106,4.896,4.813,4.896C200.622,156.809,202.217,155.559,202.711,153.641z"/>
	</g>
</g>
</svg>
